<svg  class ="mCircle" xmlns="http://www.w3.org/2000/svg" xmlns:xlink="http://www.w3.org/1999/xlink" style="margin: left;  display: block; shape-rendering: auto;" width="100px" height="100px" >
        <g transform="translate(50 50)">
        <g transform="scale(0.5)">
        <g transform="translate(-50 -50)">
            <g>
            <animateTransform attributeName="transform" type="rotate" repeatCount="indefinite" values="0 50 50;360 50 50" keyTimes="0;1" dur="0.7575757575757576s"></animateTransform>
            <path fill-opacity="0.8" fill="#1d3f72" d="M50 50L50 0A50 50 0 0 1 100 50Z"></path>
            </g>
            <g>
            <animateTransform attributeName="transform" type="rotate" repeatCount="indefinite" values="0 50 50;360 50 50" keyTimes="0;1" dur="1.0101010101010102s"></animateTransform>
            <path fill-opacity="0.8" fill="#5699d2" d="M50 50L50 0A50 50 0 0 1 100 50Z" transform="rotate(90 50 50)"></path>
            </g>
            <g>
            <animateTransform attributeName="transform" type="rotate" repeatCount="indefinite" values="0 50 50;360 50 50" keyTimes="0;1" dur="1.5151515151515151s"></animateTransform>
            <path fill-opacity="0.8" fill="#d8ebf9" d="M50 50L50 0A50 50 0 0 1 100 50Z" transform="rotate(180 50 50)"></path>
            </g>
            <g>
            <animateTransform attributeName="transform" type="rotate" repeatCount="indefinite" values="0 50 50;360 50 50" keyTimes="0;1" dur="3.0303030303030303s"></animateTransform>
            <path fill-opacity="0.8" fill="#71c2cc" d="M50 50L50 0A50 50 0 0 1 100 50Z" transform="rotate(270 50 50)"></path>
        </g>
        </g>
        </g>
        </g>
        <!-- <svg viewBox="0 0 380 100" xmlns="http://www.w3.org/2000/svg">
            <style>
            
            .heavy { font: normal 40px cinzel ;fill: rgb(247, 246, 245) }

            </style>

            <text x="140" y="200" class="heavy">A-b-s</text>

        </svg> -->
</svg>