<?xml version="1.0" encoding="UTF-8" standalone="no"?>
<svg
   xmlns:dc="http://purl.org/dc/elements/1.1/"
   xmlns:cc="http://creativecommons.org/ns#"
   xmlns:rdf="http://www.w3.org/1999/02/22-rdf-syntax-ns#"
   xmlns:svg="http://www.w3.org/2000/svg"
   xmlns="http://www.w3.org/2000/svg"
   xmlns:sodipodi="http://sodipodi.sourceforge.net/DTD/sodipodi-0.dtd"
   xmlns:inkscape="http://www.inkscape.org/namespaces/inkscape"
   width="17in"
   height="3.5in"
   viewBox="0 0 17 3.5"
   version="1.1"
   id="SVGRoot"
   sodipodi:docname="logo.svg"
   inkscape:version="1.0.2-2 (e86c870879, 2021-01-15)">
  <defs
     id="defs2709" />
  <sodipodi:namedview
     id="base"
     pagecolor="#ffffff"
     bordercolor="#666666"
     borderopacity="1.0"
     inkscape:pageopacity="0.0"
     inkscape:pageshadow="2"
     inkscape:zoom="0.35"
     inkscape:cx="400"
     inkscape:cy="560"
     inkscape:document-units="in"
     inkscape:current-layer="layer1"
     inkscape:document-rotation="0"
     showgrid="false"
     inkscape:window-width="1920"
     inkscape:window-height="1017"
     inkscape:window-x="-8"
     inkscape:window-y="-8"
     inkscape:window-maximized="1" />
  <metadata
     id="metadata2712">
    <rdf:RDF>
      <cc:Work
         rdf:about="">
        <dc:format>image/svg+xml</dc:format>
        <dc:type
           rdf:resource="http://purl.org/dc/dcmitype/StillImage" />
        <dc:title />
      </cc:Work>
    </rdf:RDF>
  </metadata>
  <g
     inkscape:label="Layer 1"
     inkscape:groupmode="layer"
     id="layer1">
    <g
       id="g858"
       transform="translate(0.80357143,-0.05952381)">
      <path
         d="m 2.5129906,2.5113297 c 0,0.4299519 -0.3273373,0.7376123 -0.7691506,0.7376123 H 0.31541759 V 0.52726149 H 1.6486732 A 0.6961433,0.6961433 0 0 1 2.3744239,1.2254277 0.68189126,0.68189126 0 0 1 2.0786251,1.8013021 c 0.252583,0.099029 0.4343655,0.38692 0.4343655,0.7100276 z M 0.90775086,1.0795971 V 1.5923028 H 1.4953947 A 0.25249102,0.25249102 0 0 0 1.7477938,1.33595 0.24826138,0.24826138 0 0 0 1.4953947,1.0795051 Z M 1.8859007,2.4048531 A 0.28963828,0.28963828 0 0 0 1.5940557,2.1090543 H 0.90775086 V 2.697066 H 1.5940557 A 0.28632813,0.28632813 0 0 0 1.8855329,2.4052209 Z"
         fill="#ffffff"
         id="path2"
         style="fill:#ffffff;stroke-width:0.0919487" />
      <path
         d="M 2.7531605,0.6259224 A 0.34535917,0.34535917 0 0 1 3.1081742,0.27486241 0.3463706,0.3463706 0 0 1 3.466774,0.6259224 0.34719814,0.34719814 0 0 1 3.1081742,0.98093617 0.34627865,0.34627865 0 0 1 2.7531605,0.6259224 Z M 2.820191,1.237289 H 3.3960655 V 3.2493098 H 2.820191 Z"
         fill="#ffffff"
         id="path4"
         style="fill:#ffffff;stroke-width:0.0919487" />
      <path
         d="m 3.7431717,2.2434832 c 0,-0.5995052 0.4654441,-1.053088 1.0849942,-1.053088 0.61955,0 1.0849942,0.4535828 1.0849942,1.053088 0,0.5995053 -0.4654442,1.0530882 -1.0849942,1.0530882 -0.6195501,0 -1.0849942,-0.453491 -1.0849942,-1.0530882 z m 1.5776551,0 A 0.48208682,0.48208682 0 0 0 4.8277981,1.7469605 0.48199488,0.48199488 0 0 0 4.3347694,2.2434832 0.48208682,0.48208682 0 0 0 4.8277981,2.7404657 0.48208682,0.48208682 0 0 0 5.3208268,2.2434832 Z"
         fill="#ffffff"
         id="path6"
         style="fill:#ffffff;stroke-width:0.0919487" />
      <path
         d="M 8.9728437,1.6913315 V 3.2493098 H 8.4561841 V 2.9140648 C 8.2589543,3.1664641 7.9671092,3.2966634 7.5884646,3.2966634 c -0.8204578,0 -1.4396401,-0.6074131 -1.4396401,-1.408102 0,-0.8006889 0.6191823,-1.40810178 1.4396401,-1.40810178 0.6507207,0 1.191103,0.38259837 1.3371175,0.91902688 H 8.2432311 A 0.77126536,0.77126536 0 0 0 7.5885566,1.0684713 0.79857411,0.79857411 0 0 0 6.7760063,1.8888372 0.79857411,0.79857411 0 0 0 7.5885566,2.7092032 0.74349686,0.74349686 0 0 0 8.3063998,2.2437591 H 7.6714023 V 1.6913315 Z"
         fill="#ffffff"
         id="path8"
         style="fill:#ffffff;stroke-width:0.0919487" />
      <path
         d="m 10.566498,1.2061184 v 0.5916897 c -0.390506,0 -0.607413,0.2011836 -0.607413,0.5127057 v 0.938796 H 9.3832105 V 1.2377488 H 9.959085 v 0.2839374 a 0.76087516,0.76087516 0 0 1 0.607413,-0.3155678 z"
         fill="#ffffff"
         id="path10"
         style="fill:#ffffff;stroke-width:0.0919487" />
      <path
         d="m 13.043411,2.6931122 v 0.5562895 h -0.161646 c -0.284029,0 -0.473352,-0.098569 -0.560059,-0.2918452 a 0.80372324,0.80372324 0 0 1 -0.662674,0.3391988 c -0.552244,0 -0.970334,-0.4535829 -0.970334,-1.0530882 0,-0.5995052 0.41809,-1.053088 0.970334,-1.053088 a 0.80353934,0.80353934 0 0 1 0.607413,0.2682143 V 1.2381166 h 0.575874 V 2.5318342 A 0.14711786,0.14711786 0 0 0 13.004057,2.69348 Z m -0.776966,-0.449629 a 0.48208682,0.48208682 0 0 0 -0.493029,-0.4965227 0.48116734,0.48116734 0 0 0 -0.489075,0.4965227 0.48116734,0.48116734 0 0 0 0.489075,0.4969825 0.48208682,0.48208682 0 0 0 0.493029,-0.4969825 z"
         fill="#ffffff"
         id="path12"
         style="fill:#ffffff;stroke-width:0.0919487" />
      <path
         d="m 15.591308,2.6931122 v 0.5561976 h -0.162197 c -0.283938,0 -0.47326,-0.098569 -0.56006,-0.2918452 a 0.80372324,0.80372324 0 0 1 -0.662582,0.3391988 c -0.552151,0 -0.970242,-0.453583 -0.970242,-1.0530882 0,-0.5995053 0.418275,-1.0532719 0.97061,-1.0532719 A 0.80344739,0.80344739 0 0 1 14.81425,1.4585175 V 0.4093833 h 0.575875 v 2.1219912 a 0.14711786,0.14711786 0 0 0 0.161737,0.1616457 z M 14.81425,2.2434832 A 0.48199488,0.48199488 0 0 0 14.321221,1.7469605 0.48116734,0.48116734 0 0 0 13.832146,2.2434832 0.48116734,0.48116734 0 0 0 14.321221,2.7404657 0.48208682,0.48208682 0 0 0 14.81425,2.2434832 Z"
         fill="#ffffff"
         id="path14"
         style="fill:#ffffff;stroke-width:0.0919487" />
    </g>
  </g>
</svg>
